<svg id="whatsapp" xmlns="http://www.w3.org/2000/svg" width="26.372" height="26.372" viewBox="0 0 26.372 26.372">
  <path id="Path_19937" data-name="Path 19937" d="M0,26.372l1.819-6.593A13.116,13.116,0,0,1,13.141,0,13.245,13.245,0,0,1,26.372,13.1,13.4,13.4,0,0,1,13.141,26.372a13.237,13.237,0,0,1-6.411-1.819Z" fill="#ededed"/>
  <path id="Path_19938" data-name="Path 19938" d="M48.958,64.053l.409.227a10.8,10.8,0,0,0,5.684,1.682,11.023,11.023,0,0,0,10.913-11,10.913,10.913,0,0,0-21.825,0,11.015,11.015,0,0,0,1.682,5.866l.273.409-1.046,3.819Z" transform="translate(-41.865 -41.865)" fill="#55cd6c"/>
  <path id="Path_19939" data-name="Path 19939" d="M132.668,135.107l-.864-.045a1.033,1.033,0,0,0-.728.273,3.767,3.767,0,0,0-1.273,1.955,5.914,5.914,0,0,0,1.364,4.638,13.779,13.779,0,0,0,7.457,5.411,3.694,3.694,0,0,0,3.092-.364,2.683,2.683,0,0,0,1.182-1.728l.136-.637a.457.457,0,0,0-.227-.5l-2.865-1.319a.434.434,0,0,0-.546.136l-1.137,1.455a.354.354,0,0,1-.364.091,8.836,8.836,0,0,1-4.774-4.092.343.343,0,0,1,.045-.364l1.091-1.228a.56.56,0,0,0,.091-.455l-1.319-2.955a.4.4,0,0,0-.364-.273" transform="translate(-123.029 -128.105)" fill="#fefefe"/>
</svg>
